HIERARCHY
ROOT hip
{
	OFFSET 0.000000 0.000000 0.000000
	CHANNELS 6 Xposition Yposition Zposition Xrotation Zrotation Yrotation 
	JOINT abdomen
	{
		OFFSET 0.000000 3.422050 0.000000
		CHANNELS 3 Xrotation Zrotation Yrotation 
		JOINT chest
		{
			OFFSET 0.000000 8.486693 -0.684411
			CHANNELS 3 Xrotation Zrotation Yrotation 
			JOINT neck
			{
				OFFSET 0.000000 10.266162 -0.273764
				CHANNELS 3 Xrotation Zrotation Yrotation 
				JOINT head
				{
					OFFSET 0.000000 3.148285 0.000000
					CHANNELS 3 Xrotation Zrotation Yrotation 
					End Site
					{
						OFFSET 0.000000 3.148289 0.000000
					}
				}
			}
			JOINT lCollar
			{
				OFFSET 3.422053 6.707223 -0.821293
				CHANNELS 3 Yrotation Zrotation Xrotation 
				JOINT lShldr
				{
					OFFSET 3.285171 0.000000 0.000000
					CHANNELS 3 Zrotation Yrotation Xrotation 
					JOINT lForeArm
					{
						OFFSET 10.129278 0.000000 0.000000
						CHANNELS 3 Yrotation Zrotation Xrotation 
						JOINT lHand
						{
							OFFSET 8.486692 0.000000 0.000000
							CHANNELS 3 Zrotation Yrotation Xrotation 
							End Site
							{
								OFFSET 4.106464 0.000000 0.000000
							}
						}
					}
				}
			}
			JOINT rCollar
			{
				OFFSET -3.558935 6.707223 -0.821293
				CHANNELS 3 Yrotation Zrotation Xrotation 
				JOINT rShldr
				{
					OFFSET -3.148289 0.000000 0.000000
					CHANNELS 3 Zrotation Yrotation Xrotation 
					JOINT rForeArm
					{
						OFFSET -10.266159 0.000000 0.000000
						CHANNELS 3 Yrotation Zrotation Xrotation 
						JOINT rHand
						{
							OFFSET -8.349810 0.000000 0.000000
							CHANNELS 3 Zrotation Yrotation Xrotation 
							End Site
							{
								OFFSET -4.106464 0.000000 0.000000
							}
						}
					}
				}
			}
		}
	}
	JOINT lThigh
	{
		OFFSET 5.338403 -1.642589 1.368821
		CHANNELS 3 Xrotation Zrotation Yrotation 
		JOINT lShin
		{
			OFFSET -2.053232 -20.121670 0.000000
			CHANNELS 3 Xrotation Zrotation Yrotation 
			JOINT lFoot
			{
				OFFSET 0.000000 -19.300380 -1.231939
				CHANNELS 3 Xrotation Yrotation Zrotation 
				End Site
				{
					OFFSET 0.000000 -2.463878 4.653993
				}
			}
		}
	}
	JOINT rThigh
	{
		OFFSET -5.338403 -1.642589 1.368821
		CHANNELS 3 Xrotation Zrotation Yrotation 
		JOINT rShin
		{
			OFFSET 2.053232 -20.121670 0.000000
			CHANNELS 3 Xrotation Zrotation Yrotation 
			JOINT rFoot
			{
				OFFSET 0.000000 -19.300380 -1.231939
				CHANNELS 3 Xrotation Yrotation Zrotation 
				End Site
				{
					OFFSET 0.000000 -2.463878 4.653993
				}
			}
		}
	}
}
MOTION
Frames: 16
Frame Time: 0.033325
-12.138111 16.912365 1.480839 27.997561 0.000000 0.000000 76.015945 1.122807 -0.087882 5.148513 10.985897 -0.385521 16.157343 -1.833435 -2.016735 -29.373308 -0.001898 -18.001003 71.669838 -57.831608 6.703256 -43.479248 -2.326020 14.752380 20.771193 -24.632835 10.660107 11.774352 0.493805 8.134909 -48.802700 46.441460 -16.540726 44.480835 6.125422 14.339238 -32.044743 36.130539 16.536758 -28.071888 9.573497 1.144435 -74.442917 5.618557 0.030975 136.151703 5.070936 -1.545970 60.590603 8.131358 2.744608 -74.444046 -5.635157 -0.110648 136.131973 -5.156496 1.539947 61.192532 -8.186223 -2.632970 
-12.138111 16.912365 1.480839 27.997561 0.000000 0.000000 76.015945 1.122807 -0.087882 5.148513 10.985896 -0.385521 16.170282 -0.566144 -2.016114 -28.402838 -0.001837 -18.001106 71.669838 -57.831608 6.703256 -43.479248 -2.326020 14.752380 20.771193 -24.632835 10.660107 11.774352 0.493805 8.134909 -48.802700 46.441460 -16.540726 44.480835 6.125422 14.339238 -32.044743 36.130543 16.536760 -28.071890 9.573497 1.144435 -74.442917 5.618557 0.030975 136.151703 5.070936 -1.545970 60.590603 8.131358 2.744608 -74.444046 -5.635157 -0.110648 136.131973 -5.156496 1.539947 61.192532 -8.186223 -2.632970 
-12.138111 16.912365 1.480839 27.997561 0.000000 0.000000 76.015945 1.122807 -0.087882 5.148513 10.985897 -0.385521 16.183226 0.700219 -2.015210 -27.432783 -0.001773 -18.001209 71.669838 -57.831608 6.703256 -43.479248 -2.326020 14.752380 20.771193 -24.632835 10.660107 11.774352 0.493805 8.134909 -48.802700 46.441460 -16.540726 44.480835 6.125422 14.339238 -32.044743 36.130539 16.536758 -28.071892 9.573497 1.144435 -74.442917 5.618557 0.030975 136.151703 5.070936 -1.545970 60.590603 8.131358 2.744608 -74.444046 -5.635157 -0.110648 136.131973 -5.156496 1.539947 61.192532 -8.186223 -2.632970 
-12.138111 16.912365 1.480839 27.997561 0.000000 0.000000 76.015945 1.122807 -0.087882 5.148513 10.985897 -0.385521 16.196178 1.965343 -2.014019 -26.463285 -0.001708 -18.001310 71.669838 -57.831608 6.703256 -43.479248 -2.326020 14.752380 20.771193 -24.632835 10.660107 11.774352 0.493805 8.134909 -48.802700 46.441460 -16.540726 44.480835 6.125422 14.339238 -32.044743 36.130539 16.536758 -28.071890 9.573497 1.144435 -74.442917 5.618557 0.030975 136.151703 5.070936 -1.545970 60.590603 8.131358 2.744608 -74.444046 -5.635157 -0.110648 136.131973 -5.156496 1.539947 61.192532 -8.186223 -2.632970 
-12.138111 16.912365 1.480839 27.997561 0.000000 0.000000 76.015945 1.122807 -0.087882 5.148513 10.985897 -0.385521 16.209156 3.228922 -2.012542 -25.494476 -0.001641 -18.001408 71.669838 -57.831608 6.703256 -43.479248 -2.326020 14.752380 20.771193 -24.632835 10.660107 11.774352 0.493805 8.134909 -48.802700 46.441460 -16.540726 44.480835 6.125422 14.339238 -32.044743 36.130539 16.536758 -28.071890 9.573497 1.144435 -74.442917 5.618557 0.030975 136.151703 5.070936 -1.545970 60.590603 8.131358 2.744608 -74.444046 -5.635157 -0.110648 136.131973 -5.156496 1.539947 61.192532 -8.186223 -2.632970 
-12.138111 16.912365 1.480839 27.997561 0.000000 0.000000 76.015945 1.122807 -0.087882 5.148513 10.985897 -0.385521 16.222166 4.490653 -2.010779 -24.526508 -0.001572 -18.001509 71.669838 -57.831608 6.703256 -43.479248 -2.326020 14.752380 20.771193 -24.632835 10.660107 11.774352 0.493805 8.134909 -48.802700 46.441460 -16.540726 44.480835 6.125422 14.339238 -32.044743 36.130539 16.536758 -28.071890 9.573497 1.144435 -74.442917 5.618557 0.030975 136.151703 5.070936 -1.545970 60.590603 8.131358 2.744608 -74.444046 -5.635157 -0.110648 136.131973 -5.156496 1.539947 61.192532 -8.186223 -2.632970 
-12.138111 16.912365 1.480839 27.997561 0.000000 0.000000 76.015945 1.122807 -0.087882 5.148513 10.985897 -0.385521 16.235218 5.750233 -2.008728 -23.559507 -0.001503 -18.001608 71.669838 -57.831608 6.703256 -43.479248 -2.326020 14.752380 20.771193 -24.632835 10.660107 11.774352 0.493805 8.134909 -48.802700 46.441460 -16.540726 44.480835 6.125422 14.339238 -32.044743 36.130539 16.536758 -28.071890 9.573497 1.144435 -74.442917 5.618557 0.030975 136.151703 5.070936 -1.545970 60.590603 8.131358 2.744608 -74.444046 -5.635157 -0.110648 136.131973 -5.156496 1.539947 61.192532 -8.186223 -2.632970 
-12.138111 16.912365 1.480839 27.997561 0.000000 0.000000 76.015945 1.122807 -0.087882 5.148513 10.985897 -0.385521 16.248329 7.007368 -2.006389 -22.593609 -0.001431 -18.001703 71.669838 -57.831608 6.703256 -43.479248 -2.326020 14.752380 20.771193 -24.632835 10.660107 11.774352 0.493805 8.134909 -48.802700 46.441460 -16.540726 44.480835 6.125422 14.339238 -32.044743 36.130539 16.536758 -28.071890 9.573497 1.144435 -74.442917 5.618557 0.030975 136.151703 5.070936 -1.545970 60.590603 8.131358 2.744608 -74.444046 -5.635157 -0.110648 136.131973 -5.156496 1.539947 61.192532 -8.186223 -2.632970 
-12.138111 16.912365 1.480839 27.997561 0.000000 0.000000 76.015945 1.122807 -0.087882 5.148513 10.985897 -0.385521 16.261497 8.261761 -2.003758 -21.628950 -0.001358 -18.001799 71.669838 -57.831608 6.703256 -43.479248 -2.326020 14.752380 20.771193 -24.632835 10.660107 11.774352 0.493805 8.134909 -48.802700 46.441460 -16.540726 44.480835 6.125422 14.339238 -32.044743 36.130539 16.536758 -28.071890 9.573497 1.144435 -74.442917 5.618557 0.030975 136.151703 5.070936 -1.545970 60.590603 8.131358 2.744608 -74.444046 -5.635157 -0.110648 136.131973 -5.156496 1.539947 61.192532 -8.186223 -2.632970 
-12.138111 16.912365 1.582964 27.997561 0.000000 0.000000 75.265678 1.123231 -0.087879 1.901098 10.986569 -0.386189 8.054444 8.261218 -2.003477 -27.860756 -0.001393 -18.001331 72.401077 -56.270542 8.181452 -43.479248 -2.326020 14.752380 20.181347 -23.900097 10.394579 12.359585 1.976885 7.518823 -50.143803 44.906231 -14.544647 44.480835 6.125422 14.339238 -31.507435 35.625275 16.206142 -28.578978 8.144217 0.121737 -74.442917 5.618557 0.030975 136.151703 5.070936 -1.545970 60.590603 8.131358 2.744608 -74.444046 -5.635157 -0.110648 136.131973 -5.156496 1.539947 61.192532 -8.186223 -2.632970 
-12.138110 16.912365 1.685090 27.997561 0.000000 0.000000 74.515366 1.123656 -0.087883 -1.351556 10.987206 -0.386897 -0.238566 8.260715 -2.003117 -34.129860 -0.001377 -18.000860 73.034233 -54.699242 9.568151 -43.479248 -2.326020 14.752380 19.598412 -23.164831 10.138715 12.929785 3.466767 6.916918 -51.376648 43.339050 -12.648988 44.480835 6.125422 14.339238 -30.977022 35.117485 15.883374 -29.058876 6.705588 -0.885342 -74.442917 5.618557 0.030975 136.151703 5.070936 -1.545970 60.590603 8.131358 2.744608 -74.444046 -5.635157 -0.110648 136.131973 -5.156496 1.539947 61.192532 -8.186223 -2.632970 
-12.138109 16.912365 1.787216 27.997561 0.000000 0.000000 73.765030 1.124080 -0.087892 -4.604218 10.987801 -0.387639 -8.531566 8.260267 -2.002686 -40.398979 -0.001311 -18.000393 73.580399 -53.119934 10.874504 -43.479244 -2.326020 14.752380 19.022177 -22.427229 9.892336 13.485338 4.962483 6.328764 -52.508560 41.744152 -10.846334 44.480835 6.125422 14.339238 -30.453362 34.607304 15.568323 -29.512049 5.258876 -1.877633 -74.442917 5.618557 0.030975 136.151703 5.070936 -1.545970 60.590603 8.131358 2.744608 -74.444046 -5.635157 -0.110648 136.131973 -5.156496 1.539947 61.192532 -8.186223 -2.632970 
-12.138109 16.912365 1.889341 27.997561 0.000000 0.000000 73.014748 1.124503 -0.087906 -7.851654 10.988353 -0.388414 -16.738588 8.259892 -2.002202 -46.630783 -0.001194 -17.999941 74.049133 -51.534691 12.110072 -43.479248 -2.326020 14.752380 18.452433 -21.687485 9.655266 14.026632 6.463073 5.753947 -53.546455 40.125458 -9.129647 44.480835 6.125422 14.339238 -29.936323 34.094837 15.260858 -29.938940 3.805335 -2.855967 -74.442917 5.618557 0.030975 136.151703 5.070936 -1.545970 60.590603 8.131358 2.744608 -74.444046 -5.635157 -0.110648 136.131973 -5.156496 1.539947 61.192532 -8.186223 -2.632970 
-12.138109 16.912365 1.865312 27.997561 0.000000 0.000000 73.191292 1.124404 -0.087902 -7.088296 10.988226 -0.388229 -14.819659 8.259973 -2.002320 -45.169765 -0.001225 -18.000046 73.945351 -51.908123 11.825261 -43.479248 -2.326020 14.752380 18.585922 -21.861732 9.710221 13.900535 6.109606 5.888022 -53.310337 40.508255 -9.526194 44.480835 6.125422 14.339238 -30.057396 34.215622 15.332528 -29.840830 4.147893 -2.626982 -74.442917 5.618557 0.030975 136.151703 5.070936 -1.545970 60.590603 8.131358 2.744608 -74.444046 -5.635157 -0.110648 136.131973 -5.156495 1.539947 61.192532 -8.186223 -2.632970 
-12.138109 16.912365 1.841282 27.997561 0.000000 0.000000 73.367805 1.124304 -0.087899 -6.324429 10.988096 -0.388046 -12.892476 8.260057 -2.002435 -43.705151 -0.001256 -18.000154 73.837654 -52.281300 11.536898 -43.479244 -2.326020 14.752380 18.719755 -22.035860 9.765681 13.773660 5.756367 6.022815 -53.069309 40.889908 -9.927220 44.480835 6.125422 14.339238 -30.178822 34.336277 15.404613 -29.741287 4.490126 -2.397260 -74.442917 5.618557 0.030975 136.151703 5.070936 -1.545970 60.590603 8.131358 2.744608 -74.444046 -5.635157 -0.110648 136.131973 -5.156496 1.539947 61.192532 -8.186223 -2.632970 
-12.138109 16.912365 1.817253 27.997561 0.000000 0.000000 73.544334 1.124204 -0.087896 -5.560120 10.987966 -0.387864 -10.958080 8.260150 -2.002549 -42.237381 -0.001282 -18.000259 73.725906 -52.654221 11.244862 -43.479248 -2.326020 14.752380 18.853939 -22.209871 9.821651 13.646008 5.403370 6.158336 -52.823273 41.270359 -10.332810 44.480835 6.125422 14.339238 -30.300611 34.456814 15.477112 -29.640306 4.832016 -2.166790 -74.442917 5.618557 0.030975 136.151703 5.070936 -1.545970 60.590603 8.131358 2.744608 -74.444046 -5.635157 -0.110648 136.131973 -5.156496 1.539947 61.192532 -8.186223 -2.632970 
